<?xml version="1.0" encoding="UTF-8" standalone="no"?>
<!-- Created with Inkscape (http://www.inkscape.org/) -->

<svg
   width="10"
   height="14"
   viewBox="0 0 2.6458333 3.7041667"
   version="1.1"
   id="svg1"
   inkscape:version="1.4 (86a8ad7, 2024-10-11)"
   sodipodi:docname="help.svg"
   xmlns:inkscape="http://www.inkscape.org/namespaces/inkscape"
   xmlns:sodipodi="http://sodipodi.sourceforge.net/DTD/sodipodi-0.dtd"
   xmlns:xlink="http://www.w3.org/1999/xlink"
   xmlns="http://www.w3.org/2000/svg"
   xmlns:svg="http://www.w3.org/2000/svg">
  <sodipodi:namedview
     id="namedview1"
     pagecolor="#ffffff"
     bordercolor="#000000"
     borderopacity="0.25"
     inkscape:showpageshadow="2"
     inkscape:pageopacity="0.0"
     inkscape:pagecheckerboard="true"
     inkscape:deskcolor="#d1d1d1"
     inkscape:document-units="mm"
     showborder="false"
     inkscape:zoom="32"
     inkscape:cx="4.203125"
     inkscape:cy="8.015625"
     inkscape:window-width="1920"
     inkscape:window-height="991"
     inkscape:window-x="-9"
     inkscape:window-y="-9"
     inkscape:window-maximized="1"
     inkscape:current-layer="layer1" />
  <defs
     id="defs1">
    <linearGradient
       id="linearGradient40"
       inkscape:collect="always">
      <stop
         style="stop-color:#5dc2c1;stop-opacity:1;"
         offset="0.32763845"
         id="stop42" />
      <stop
         style="stop-color:#eb541c;stop-opacity:1;"
         offset="1"
         id="stop41" />
    </linearGradient>
    <inkscape:path-effect
       effect="bspline"
       id="path-effect33"
       is_visible="true"
       lpeversion="1.3"
       weight="33.333333"
       steps="2"
       helper_size="0"
       apply_no_weight="true"
       apply_with_weight="true"
       only_selected="false"
       uniform="false" />
    <linearGradient
       inkscape:collect="always"
       xlink:href="#linearGradient40"
       id="linearGradient48"
       x1="103.50723"
       y1="123.0765"
       x2="103.50723"
       y2="228.6593"
       gradientUnits="userSpaceOnUse" />
  </defs>
  <g
     inkscape:label="Taso 1"
     inkscape:groupmode="layer"
     id="layer1"
     transform="translate(-52.208594,-60.542765)">
    <path
       style="fill:url(#linearGradient48);fill-rule:nonzero;stroke:#000000;stroke-width:0.1"
       d="m 51.471698,128.91061 c 2.502516,-10.75188 12.016055,-29.104208 27.274976,-36.615397 15.258921,-7.511189 36.262386,-4.181371 50.734646,1.838124 14.47227,6.019493 22.4126,14.728243 25.39026,26.286923 2.97767,11.55868 0.99262,25.96625 -4.6747,37.78117 -5.66732,11.81492 -15.01623,21.03577 -25.42233,26.09473 -10.40609,5.05896 -21.86811,5.95544 -25.806417,18.98707 -3.938308,13.03163 -0.352422,38.19686 -2.001388,50.85226 -1.648966,12.65541 -8.532586,12.79947 -12.150705,-0.74446 -3.618118,-13.54393 -3.970304,-40.77424 1.424856,-55.3828 5.395159,-14.60855 16.537024,-16.5936 26.622924,-22.5811 10.08591,-5.98751 19.11483,-15.97696 24.78206,-25.58248 5.66723,-9.60553 7.97249,-18.82656 4.51444,-27.15134 -3.45805,-8.32479 -12.67908,-15.75284 -24.01362,-20.04327 -11.33455,-4.29044 -24.781888,-5.443062 -35.160933,2.29928 -10.379044,7.74235 -17.689087,24.37869 -23.598629,31.12161 -5.909542,6.74292 -10.417956,3.59156 -7.91544,-7.16032 z"
       id="path33"
       inkscape:path-effect="#path-effect33"
       inkscape:original-d="m 44.460674,136.51106 c 9.51354,-18.35233 19.02708,-36.704658 28.540618,-55.056986 21.004303,3.32995 42.007768,6.659766 63.011638,9.98965 7.94066,8.709106 15.88099,17.417856 23.82148,26.126776 -1.98516,14.40844 -3.97021,28.81601 -5.95537,43.22445 -9.34948,9.2214 -18.69839,18.44225 -28.04787,27.66365 -11.46271,0.89652 -22.92473,1.79299 -34.387446,2.68952 3.5861,25.16674 7.171986,50.33197 10.758086,75.4987 -6.884031,0.14408 -13.767651,0.28814 -20.651682,0.43222 -0.352206,-27.23194 -0.704392,-54.46225 -1.056598,-81.6942 11.142526,-1.98516 22.28439,-3.97021 33.42691,-5.95537 9.02929,-9.98985 18.05821,-19.9793 27.08732,-29.96895 2.30535,-9.2214 4.61061,-18.44243 6.91591,-27.66365 -9.2214,-7.42835 -18.44243,-14.8564 -27.66365,-22.284602 -13.44787,-1.152656 -26.895209,-2.305284 -40.342816,-3.457936 -7.31048,16.637338 -14.620523,33.273678 -21.931006,49.911018 -4.508599,-3.1515 -9.017016,-6.30286 -13.525524,-9.45429 z"
       sodipodi:nodetypes="scccccccccccccccs"
       transform="matrix(0.01848186,0,0,0.01848186,51.617019,58.920779)" />
    <circle
       style="fill:#eb541c;fill-opacity:1;stroke:#000000;stroke-width:0.00142813"
       id="path34"
       cx="53.300934"
       cy="64.057526"
       r="0.19067711" />
  </g>
</svg>
