<?xml version="1.0" encoding="UTF-8" standalone="no"?>
<!-- Created with Inkscape (http://www.inkscape.org/) -->

<svg
   width="15"
   height="15"
   viewBox="0 0 3.96875 3.96875"
   version="1.1"
   id="svg1"
   inkscape:version="1.4 (86a8ad7, 2024-10-11)"
   sodipodi:docname="inlaySettings.svg"
   xmlns:inkscape="http://www.inkscape.org/namespaces/inkscape"
   xmlns:sodipodi="http://sodipodi.sourceforge.net/DTD/sodipodi-0.dtd"
   xmlns="http://www.w3.org/2000/svg"
   xmlns:svg="http://www.w3.org/2000/svg">
  <sodipodi:namedview
     id="namedview1"
     pagecolor="#ffffff"
     bordercolor="#000000"
     borderopacity="0.25"
     inkscape:showpageshadow="2"
     inkscape:pageopacity="0.0"
     inkscape:pagecheckerboard="true"
     inkscape:deskcolor="#d1d1d1"
     inkscape:document-units="mm"
     showborder="false"
     showguides="true"
     inkscape:zoom="16"
     inkscape:cx="-0.59375"
     inkscape:cy="14.71875"
     inkscape:window-width="1920"
     inkscape:window-height="991"
     inkscape:window-x="-9"
     inkscape:window-y="-9"
     inkscape:window-maximized="1"
     inkscape:current-layer="layer1">
    <sodipodi:guide
       position="-77.781732,418.28173"
       orientation="0,793.70079"
       id="guide5"
       inkscape:locked="false" />
    <sodipodi:guide
       position="132.21827,418.28173"
       orientation="1122.5197,0"
       id="guide6"
       inkscape:locked="false" />
    <sodipodi:guide
       position="132.21827,121.28173"
       orientation="0,-793.70079"
       id="guide7"
       inkscape:locked="false" />
    <sodipodi:guide
       position="-77.781732,121.28173"
       orientation="-1122.5197,0"
       id="guide8"
       inkscape:locked="false" />
  </sodipodi:namedview>
  <defs
     id="defs1" />
  <g
     inkscape:label="Taso 1"
     inkscape:groupmode="layer"
     id="layer1"
     transform="translate(-77.781732,-121.28173)">
    <path
       sodipodi:type="star"
       style="fill:#5dc2c1;fill-opacity:1;stroke:#000000;stroke-width:0.1"
       id="path4"
       inkscape:flatsided="false"
       sodipodi:sides="8"
       sodipodi:cx="90.291069"
       sodipodi:cy="120.45213"
       sodipodi:r1="27.168268"
       sodipodi:r2="21.734615"
       sodipodi:arg1="0.78539816"
       sodipodi:arg2="1.1780972"
       inkscape:rounded="0.3"
       inkscape:randomized="0"
       d="m 109.50194,139.663 c -2.31819,2.31818 -7.86454,-0.38529 -10.893393,0.8693 -3.028852,1.25459 -5.039072,7.0881 -8.317478,7.0881 -3.278406,0 -5.288624,-5.83351 -8.317476,-7.0881 -3.028853,-1.25459 -8.575207,1.44888 -10.893391,-0.8693 -2.318183,-2.31818 0.385293,-7.86454 -0.869299,-10.89339 -1.254592,-3.02885 -7.088102,-5.03907 -7.088102,-8.31748 0,-3.2784 5.83351,-5.28862 7.088101,-8.31747 1.254592,-3.02886 -1.448883,-8.57521 0.8693,-10.89339 2.318183,-2.318186 7.864537,0.38529 10.893389,-0.8693 3.028852,-1.254594 5.039072,-7.088105 8.317478,-7.088105 3.278406,0 5.288624,5.83351 8.317476,7.088105 3.028855,1.25459 8.575205,-1.448887 10.893395,0.8693 2.31818,2.31818 -0.3853,7.86453 0.86929,10.89339 1.2546,3.02885 7.08811,5.03907 7.08811,8.31747 0,3.27841 -5.83351,5.28863 -7.0881,8.31748 -1.2546,3.02885 1.44888,8.57521 -0.8693,10.89339 z"
       transform="matrix(0.07287603,0,0,0.07287603,73.185236,114.48722)" />
    <path
       sodipodi:type="star"
       style="fill:#eb541c;fill-opacity:1;stroke:#000000;stroke-width:0.1"
       id="path5"
       inkscape:flatsided="false"
       sodipodi:sides="8"
       sodipodi:cx="78.764557"
       sodipodi:cy="107.77296"
       sodipodi:r1="18.753979"
       sodipodi:r2="15.003183"
       sodipodi:arg1="0.81437556"
       sodipodi:arg2="1.2070746"
       inkscape:rounded="0.3"
       inkscape:randomized="0"
       d="m 91.635838,121.41267 c -1.64591,1.55319 -5.418825,-0.42314 -7.533825,0.38195 -2.115,0.80509 -3.618721,4.79001 -5.880822,4.72444 -2.2621,-0.0656 -3.53248,-4.13089 -5.597296,-5.05714 -2.064817,-0.92624 -5.945871,0.82823 -7.499054,-0.81768 -1.553182,-1.64591 0.423143,-5.41883 -0.381948,-7.53383 -0.805092,-2.115 -4.79001,-3.61872 -4.724442,-5.88082 0.06557,-2.2621 4.130895,-3.53248 5.05714,-5.5973 0.926246,-2.064812 -0.828225,-5.945866 0.817685,-7.499049 1.64591,-1.553183 5.418825,0.423143 7.533824,-0.381948 2.115,-0.805092 3.618722,-4.79001 5.880822,-4.724442 2.2621,0.06557 3.532481,4.130895 5.597297,5.05714 2.064816,0.926246 5.945871,-0.828225 7.499054,0.817685 1.553182,1.64591 -0.423143,5.418824 0.381948,7.533824 0.805091,2.115 4.790009,3.61872 4.724441,5.88082 -0.06557,2.2621 -4.130894,3.53248 -5.05714,5.5973 -0.926245,2.06482 0.828226,5.94587 -0.817684,7.49905 z"
       transform="matrix(0.07287603,0,0,0.07287603,74.025242,115.41122)" />
    <ellipse
       style="fill:#f6fff6;fill-opacity:0.420354;stroke:#000000;stroke-width:0.0129118"
       id="path9"
       cx="79.765289"
       cy="123.26529"
       rx="0.4836919"
       ry="0.47749075" />
  </g>
</svg>
