<?xml version="1.0" encoding="UTF-8" standalone="no"?>
<!-- Created with Inkscape (http://www.inkscape.org/) -->

<svg
   version="1.1"
   id="svg10"
   xml:space="preserve"
   width="13"
   height="13"
   viewBox="0 0 51.106667 28.440001"
   xmlns="http://www.w3.org/2000/svg"
   xmlns:svg="http://www.w3.org/2000/svg"
   xmlns:rdf="http://www.w3.org/1999/02/22-rdf-syntax-ns#"
   xmlns:cc="http://creativecommons.org/ns#"
   xmlns:dc="http://purl.org/dc/elements/1.1/"><metadata
     id="metadata16"><rdf:RDF><cc:Work
         rdf:about=""><dc:format>image/svg+xml</dc:format><dc:type
           rdf:resource="http://purl.org/dc/dcmitype/StillImage" /><dc:title /></cc:Work></rdf:RDF></metadata><defs
     id="defs14"><clipPath
       id="clip0_16791_12096"><rect
         width="16"
         height="16"
         fill="#ffffff"
         id="rect1"
         x="0"
         y="0" /></clipPath></defs><g
     id="g18"
     transform="matrix(1.3333333,0,0,-1.3333333,0,28.44)"><g
       id="g20"
       transform="scale(0.1)"><path
         d="m 186.121,74.3164 -33.785,9.0625 31.238,116.5621 33.781,-9.043 -31.234,-116.5816"
         style="fill:#5dc2c1;fill-opacity:1;fill-rule:nonzero;stroke:none"
         id="path22" /><path
         d="M 183.523,65.332 158.125,37.3633 150.098,74.2969 Z"
         style="fill:#5dc2c1;fill-opacity:1;fill-rule:nonzero;stroke:none"
         id="path24" /><path
         d="M 141.973,153.281 H 34.6289 V 118.535 H 70.9258 L 70.918,33.3789 h 34.758 v 85.1561 h 36.297 v 34.746"
         style="fill:#5dc2c1;fill-opacity:1;fill-rule:nonzero;stroke:none"
         id="path26" /><path
         d="M 348.699,33.3789 V 153.281 h -34.844 l -26.66,-26.66 -26.66,26.66 H 225.723 V 33.3789 h 34.757 v 70.8201 l 26.715,-26.7185 4.211,4.1992 20.371,20.3713 h -0.007 l 2.183,2.187 V 33.3789 h 34.746"
         style="fill:#eb541c;fill-opacity:1;fill-rule:nonzero;stroke:none"
         id="path28" /></g><g
       clip-path="url(#clip0_16791_12096)"
       id="g2"
       transform="matrix(0.61037437,0,0,-0.6902489,28.732512,7.6564598)"
       style="fill:#208a3c;fill-opacity:1"><path
         d="m 13.5,7.13397 c 0.6667,0.38491 0.6667,1.34715 0,1.73205 l -9,5.19618 C 3.83333,14.4471 3,13.966 3,13.1962 V 2.80385 C 3,2.03405 3.83333,1.55292 4.5,1.93782 Z"
         fill="#f2fcf3"
         stroke="#208a3c"
         id="path1"
         style="fill:#208a3c;fill-opacity:1" /></g></g></svg>
